<mxfile host="app.diagrams.net" modified="2023-07-04T16:04:54.830Z" agent="Mozilla/5.0 (Windows NT 10.0; Win64; x64) AppleWebKit/537.36 (KHTML, like Gecko) Chrome/114.0.0.0 Safari/537.36 Edg/114.0.1823.67" etag="vMOdX-1X6twToZ1eQoFb" version="21.5.2" type="device">
  <diagram name="Page-1" id="eNnorljWHA8Fd-TjWaPT">
    <mxGraphModel dx="1900" dy="549" grid="1" gridSize="10" guides="1" tooltips="1" connect="1" arrows="1" fold="1" page="1" pageScale="1" pageWidth="850" pageHeight="1100" math="0" shadow="0">
      <root>
        <mxCell id="0" />
        <mxCell id="1" parent="0" />
        <mxCell id="Mb9LLmWrH7XfFFyfKk_U-1" value="Subject" style="swimlane;fontStyle=0;childLayout=stackLayout;horizontal=1;startSize=30;horizontalStack=0;resizeParent=1;resizeParentMax=0;resizeLast=0;collapsible=1;marginBottom=0;whiteSpace=wrap;html=1;" vertex="1" parent="1">
          <mxGeometry x="-130" y="40" width="140" height="120" as="geometry" />
        </mxCell>
        <mxCell id="Mb9LLmWrH7XfFFyfKk_U-2" value="+ register()" style="text;strokeColor=none;fillColor=none;align=left;verticalAlign=middle;spacingLeft=4;spacingRight=4;overflow=hidden;points=[[0,0.5],[1,0.5]];portConstraint=eastwest;rotatable=0;whiteSpace=wrap;html=1;" vertex="1" parent="Mb9LLmWrH7XfFFyfKk_U-1">
          <mxGeometry y="30" width="140" height="30" as="geometry" />
        </mxCell>
        <mxCell id="Mb9LLmWrH7XfFFyfKk_U-3" value="+ removeObserver()" style="text;strokeColor=none;fillColor=none;align=left;verticalAlign=middle;spacingLeft=4;spacingRight=4;overflow=hidden;points=[[0,0.5],[1,0.5]];portConstraint=eastwest;rotatable=0;whiteSpace=wrap;html=1;" vertex="1" parent="Mb9LLmWrH7XfFFyfKk_U-1">
          <mxGeometry y="60" width="140" height="30" as="geometry" />
        </mxCell>
        <mxCell id="Mb9LLmWrH7XfFFyfKk_U-4" value="+ notifyObserver()" style="text;strokeColor=none;fillColor=none;align=left;verticalAlign=middle;spacingLeft=4;spacingRight=4;overflow=hidden;points=[[0,0.5],[1,0.5]];portConstraint=eastwest;rotatable=0;whiteSpace=wrap;html=1;" vertex="1" parent="Mb9LLmWrH7XfFFyfKk_U-1">
          <mxGeometry y="90" width="140" height="30" as="geometry" />
        </mxCell>
        <mxCell id="Mb9LLmWrH7XfFFyfKk_U-5" value="Observer" style="swimlane;fontStyle=0;childLayout=stackLayout;horizontal=1;startSize=30;horizontalStack=0;resizeParent=1;resizeParentMax=0;resizeLast=0;collapsible=1;marginBottom=0;whiteSpace=wrap;html=1;" vertex="1" parent="1">
          <mxGeometry x="160" y="70" width="140" height="60" as="geometry" />
        </mxCell>
        <mxCell id="Mb9LLmWrH7XfFFyfKk_U-7" value="+ update()" style="text;strokeColor=none;fillColor=none;align=left;verticalAlign=middle;spacingLeft=4;spacingRight=4;overflow=hidden;points=[[0,0.5],[1,0.5]];portConstraint=eastwest;rotatable=0;whiteSpace=wrap;html=1;" vertex="1" parent="Mb9LLmWrH7XfFFyfKk_U-5">
          <mxGeometry y="30" width="140" height="30" as="geometry" />
        </mxCell>
        <mxCell id="Mb9LLmWrH7XfFFyfKk_U-10" style="rounded=0;orthogonalLoop=1;jettySize=auto;html=1;exitX=1;exitY=0.5;exitDx=0;exitDy=0;entryX=0;entryY=0.5;entryDx=0;entryDy=0;startArrow=diamondThin;startFill=0;targetPerimeterSpacing=20;sourcePerimeterSpacing=2;jumpSize=7;endSize=8;startSize=15;" edge="1" parent="1" source="Mb9LLmWrH7XfFFyfKk_U-3" target="Mb9LLmWrH7XfFFyfKk_U-7">
          <mxGeometry relative="1" as="geometry" />
        </mxCell>
        <mxCell id="Mb9LLmWrH7XfFFyfKk_U-11" value="Command" style="swimlane;fontStyle=0;childLayout=stackLayout;horizontal=1;startSize=30;horizontalStack=0;resizeParent=1;resizeParentMax=0;resizeLast=0;collapsible=1;marginBottom=0;whiteSpace=wrap;html=1;" vertex="1" parent="1">
          <mxGeometry x="470" y="280" width="140" height="60" as="geometry" />
        </mxCell>
        <mxCell id="Mb9LLmWrH7XfFFyfKk_U-12" value="+ execute()" style="text;strokeColor=none;fillColor=none;align=left;verticalAlign=middle;spacingLeft=4;spacingRight=4;overflow=hidden;points=[[0,0.5],[1,0.5]];portConstraint=eastwest;rotatable=0;whiteSpace=wrap;html=1;" vertex="1" parent="Mb9LLmWrH7XfFFyfKk_U-11">
          <mxGeometry y="30" width="140" height="30" as="geometry" />
        </mxCell>
        <mxCell id="Mb9LLmWrH7XfFFyfKk_U-19" style="rounded=0;orthogonalLoop=1;jettySize=auto;html=1;exitX=0.5;exitY=0;exitDx=0;exitDy=0;entryX=0.337;entryY=0.98;entryDx=0;entryDy=0;entryPerimeter=0;endArrow=blockThin;endFill=0;endSize=11;" edge="1" parent="1" source="Mb9LLmWrH7XfFFyfKk_U-15" target="Mb9LLmWrH7XfFFyfKk_U-12">
          <mxGeometry relative="1" as="geometry" />
        </mxCell>
        <mxCell id="Mb9LLmWrH7XfFFyfKk_U-15" value="UserCommand" style="swimlane;fontStyle=0;childLayout=stackLayout;horizontal=1;startSize=30;horizontalStack=0;resizeParent=1;resizeParentMax=0;resizeLast=0;collapsible=1;marginBottom=0;whiteSpace=wrap;html=1;" vertex="1" parent="1">
          <mxGeometry x="400" y="420" width="140" height="60" as="geometry" />
        </mxCell>
        <mxCell id="Mb9LLmWrH7XfFFyfKk_U-16" value="+ execute()" style="text;strokeColor=none;fillColor=none;align=left;verticalAlign=middle;spacingLeft=4;spacingRight=4;overflow=hidden;points=[[0,0.5],[1,0.5]];portConstraint=eastwest;rotatable=0;whiteSpace=wrap;html=1;" vertex="1" parent="Mb9LLmWrH7XfFFyfKk_U-15">
          <mxGeometry y="30" width="140" height="30" as="geometry" />
        </mxCell>
        <mxCell id="Mb9LLmWrH7XfFFyfKk_U-20" style="rounded=0;orthogonalLoop=1;jettySize=auto;html=1;exitX=0.5;exitY=0;exitDx=0;exitDy=0;entryX=0.56;entryY=1.087;entryDx=0;entryDy=0;entryPerimeter=0;endArrow=block;endFill=0;endSize=11;" edge="1" parent="1" source="Mb9LLmWrH7XfFFyfKk_U-17" target="Mb9LLmWrH7XfFFyfKk_U-12">
          <mxGeometry relative="1" as="geometry" />
        </mxCell>
        <mxCell id="Mb9LLmWrH7XfFFyfKk_U-17" value="SystemCommand" style="swimlane;fontStyle=0;childLayout=stackLayout;horizontal=1;startSize=30;horizontalStack=0;resizeParent=1;resizeParentMax=0;resizeLast=0;collapsible=1;marginBottom=0;whiteSpace=wrap;html=1;" vertex="1" parent="1">
          <mxGeometry x="570" y="410" width="140" height="60" as="geometry" />
        </mxCell>
        <mxCell id="Mb9LLmWrH7XfFFyfKk_U-18" value="+ execute()" style="text;strokeColor=none;fillColor=none;align=left;verticalAlign=middle;spacingLeft=4;spacingRight=4;overflow=hidden;points=[[0,0.5],[1,0.5]];portConstraint=eastwest;rotatable=0;whiteSpace=wrap;html=1;" vertex="1" parent="Mb9LLmWrH7XfFFyfKk_U-17">
          <mxGeometry y="30" width="140" height="30" as="geometry" />
        </mxCell>
        <mxCell id="Mb9LLmWrH7XfFFyfKk_U-21" value="DataSource" style="swimlane;fontStyle=0;childLayout=stackLayout;horizontal=1;startSize=30;horizontalStack=0;resizeParent=1;resizeParentMax=0;resizeLast=0;collapsible=1;marginBottom=0;whiteSpace=wrap;html=1;" vertex="1" parent="1">
          <mxGeometry x="95" y="450" width="140" height="150" as="geometry" />
        </mxCell>
        <mxCell id="Mb9LLmWrH7XfFFyfKk_U-22" value="+ get()" style="text;strokeColor=none;fillColor=none;align=left;verticalAlign=middle;spacingLeft=4;spacingRight=4;overflow=hidden;points=[[0,0.5],[1,0.5]];portConstraint=eastwest;rotatable=0;whiteSpace=wrap;html=1;" vertex="1" parent="Mb9LLmWrH7XfFFyfKk_U-21">
          <mxGeometry y="30" width="140" height="30" as="geometry" />
        </mxCell>
        <mxCell id="Mb9LLmWrH7XfFFyfKk_U-23" value="+ all()" style="text;strokeColor=none;fillColor=none;align=left;verticalAlign=middle;spacingLeft=4;spacingRight=4;overflow=hidden;points=[[0,0.5],[1,0.5]];portConstraint=eastwest;rotatable=0;whiteSpace=wrap;html=1;" vertex="1" parent="Mb9LLmWrH7XfFFyfKk_U-21">
          <mxGeometry y="60" width="140" height="30" as="geometry" />
        </mxCell>
        <mxCell id="Mb9LLmWrH7XfFFyfKk_U-24" value="+ delete()" style="text;strokeColor=none;fillColor=none;align=left;verticalAlign=middle;spacingLeft=4;spacingRight=4;overflow=hidden;points=[[0,0.5],[1,0.5]];portConstraint=eastwest;rotatable=0;whiteSpace=wrap;html=1;" vertex="1" parent="Mb9LLmWrH7XfFFyfKk_U-21">
          <mxGeometry y="90" width="140" height="30" as="geometry" />
        </mxCell>
        <mxCell id="Mb9LLmWrH7XfFFyfKk_U-26" value="+ update()" style="text;strokeColor=none;fillColor=none;align=left;verticalAlign=middle;spacingLeft=4;spacingRight=4;overflow=hidden;points=[[0,0.5],[1,0.5]];portConstraint=eastwest;rotatable=0;whiteSpace=wrap;html=1;" vertex="1" parent="Mb9LLmWrH7XfFFyfKk_U-21">
          <mxGeometry y="120" width="140" height="30" as="geometry" />
        </mxCell>
        <mxCell id="Mb9LLmWrH7XfFFyfKk_U-32" style="edgeStyle=orthogonalEdgeStyle;rounded=0;orthogonalLoop=1;jettySize=auto;html=1;exitX=0.5;exitY=0;exitDx=0;exitDy=0;entryX=-0.016;entryY=0.06;entryDx=0;entryDy=0;entryPerimeter=0;endArrow=block;endFill=0;" edge="1" parent="1" source="Mb9LLmWrH7XfFFyfKk_U-27" target="Mb9LLmWrH7XfFFyfKk_U-24">
          <mxGeometry relative="1" as="geometry" />
        </mxCell>
        <mxCell id="Mb9LLmWrH7XfFFyfKk_U-27" value="BankAccountRepository" style="swimlane;fontStyle=0;childLayout=stackLayout;horizontal=1;startSize=30;horizontalStack=0;resizeParent=1;resizeParentMax=0;resizeLast=0;collapsible=1;marginBottom=0;whiteSpace=wrap;html=1;" vertex="1" parent="1">
          <mxGeometry x="-220" y="630" width="170" height="60" as="geometry" />
        </mxCell>
        <mxCell id="Mb9LLmWrH7XfFFyfKk_U-33" style="edgeStyle=orthogonalEdgeStyle;rounded=0;orthogonalLoop=1;jettySize=auto;html=1;exitX=0.5;exitY=0;exitDx=0;exitDy=0;entryX=-0.01;entryY=0.233;entryDx=0;entryDy=0;entryPerimeter=0;endArrow=block;endFill=0;" edge="1" parent="1" source="Mb9LLmWrH7XfFFyfKk_U-29" target="Mb9LLmWrH7XfFFyfKk_U-26">
          <mxGeometry relative="1" as="geometry" />
        </mxCell>
        <mxCell id="Mb9LLmWrH7XfFFyfKk_U-29" value="HitstoryRepository" style="swimlane;fontStyle=0;childLayout=stackLayout;horizontal=1;startSize=30;horizontalStack=0;resizeParent=1;resizeParentMax=0;resizeLast=0;collapsible=1;marginBottom=0;whiteSpace=wrap;html=1;" vertex="1" parent="1">
          <mxGeometry x="-110" y="670" width="170" height="60" as="geometry" />
        </mxCell>
        <mxCell id="Mb9LLmWrH7XfFFyfKk_U-36" style="edgeStyle=orthogonalEdgeStyle;rounded=0;orthogonalLoop=1;jettySize=auto;html=1;exitX=0.5;exitY=0;exitDx=0;exitDy=0;entryX=0.55;entryY=1.113;entryDx=0;entryDy=0;entryPerimeter=0;endArrow=block;endFill=0;" edge="1" parent="1" source="Mb9LLmWrH7XfFFyfKk_U-30" target="Mb9LLmWrH7XfFFyfKk_U-26">
          <mxGeometry relative="1" as="geometry">
            <Array as="points">
              <mxPoint x="85" y="640" />
              <mxPoint x="172" y="640" />
            </Array>
          </mxGeometry>
        </mxCell>
        <mxCell id="Mb9LLmWrH7XfFFyfKk_U-30" value="ProductRepository" style="swimlane;fontStyle=0;childLayout=stackLayout;horizontal=1;startSize=30;horizontalStack=0;resizeParent=1;resizeParentMax=0;resizeLast=0;collapsible=1;marginBottom=0;whiteSpace=wrap;html=1;" vertex="1" parent="1">
          <mxGeometry y="710" width="170" height="60" as="geometry" />
        </mxCell>
        <mxCell id="Mb9LLmWrH7XfFFyfKk_U-37" style="rounded=0;orthogonalLoop=1;jettySize=auto;html=1;exitX=0.75;exitY=0;exitDx=0;exitDy=0;entryX=0.899;entryY=0.953;entryDx=0;entryDy=0;entryPerimeter=0;endArrow=block;endFill=0;" edge="1" parent="1" target="Mb9LLmWrH7XfFFyfKk_U-26">
          <mxGeometry relative="1" as="geometry">
            <mxPoint x="221.1" y="760.6" as="sourcePoint" />
            <mxPoint x="220.04000000000005" y="600.0000000000001" as="targetPoint" />
          </mxGeometry>
        </mxCell>
        <mxCell id="Mb9LLmWrH7XfFFyfKk_U-31" value="UserRepository" style="swimlane;fontStyle=0;childLayout=stackLayout;horizontal=1;startSize=30;horizontalStack=0;resizeParent=1;resizeParentMax=0;resizeLast=0;collapsible=1;marginBottom=0;whiteSpace=wrap;html=1;" vertex="1" parent="1">
          <mxGeometry x="80" y="760" width="170" height="60" as="geometry" />
        </mxCell>
        <mxCell id="Mb9LLmWrH7XfFFyfKk_U-42" style="rounded=0;orthogonalLoop=1;jettySize=auto;html=1;exitX=0.5;exitY=0;exitDx=0;exitDy=0;entryX=0.477;entryY=1.06;entryDx=0;entryDy=0;entryPerimeter=0;endArrow=block;endFill=0;" edge="1" parent="1" source="Mb9LLmWrH7XfFFyfKk_U-38" target="Mb9LLmWrH7XfFFyfKk_U-4">
          <mxGeometry relative="1" as="geometry" />
        </mxCell>
        <mxCell id="Mb9LLmWrH7XfFFyfKk_U-38" value="Recharge" style="swimlane;fontStyle=0;childLayout=stackLayout;horizontal=1;startSize=30;horizontalStack=0;resizeParent=1;resizeParentMax=0;resizeLast=0;collapsible=1;marginBottom=0;whiteSpace=wrap;html=1;" vertex="1" parent="1">
          <mxGeometry x="-240" y="250" width="140" height="60" as="geometry" />
        </mxCell>
        <mxCell id="Mb9LLmWrH7XfFFyfKk_U-41" style="rounded=0;orthogonalLoop=1;jettySize=auto;html=1;exitX=0.5;exitY=0;exitDx=0;exitDy=0;entryX=0.509;entryY=1.073;entryDx=0;entryDy=0;entryPerimeter=0;endArrow=block;endFill=0;" edge="1" parent="1" source="Mb9LLmWrH7XfFFyfKk_U-40" target="Mb9LLmWrH7XfFFyfKk_U-7">
          <mxGeometry relative="1" as="geometry" />
        </mxCell>
        <mxCell id="Mb9LLmWrH7XfFFyfKk_U-40" value="Screen" style="swimlane;fontStyle=0;childLayout=stackLayout;horizontal=1;startSize=30;horizontalStack=0;resizeParent=1;resizeParentMax=0;resizeLast=0;collapsible=1;marginBottom=0;whiteSpace=wrap;html=1;" vertex="1" parent="1">
          <mxGeometry x="160" y="260" width="140" height="60" as="geometry" />
        </mxCell>
        <mxCell id="Mb9LLmWrH7XfFFyfKk_U-44" style="rounded=0;orthogonalLoop=1;jettySize=auto;html=1;exitX=0.5;exitY=0;exitDx=0;exitDy=0;entryX=0.626;entryY=1.087;entryDx=0;entryDy=0;entryPerimeter=0;endArrow=block;endFill=0;" edge="1" parent="1" source="Mb9LLmWrH7XfFFyfKk_U-43" target="Mb9LLmWrH7XfFFyfKk_U-4">
          <mxGeometry relative="1" as="geometry" />
        </mxCell>
        <mxCell id="Mb9LLmWrH7XfFFyfKk_U-43" value="AddProduct" style="swimlane;fontStyle=0;childLayout=stackLayout;horizontal=1;startSize=30;horizontalStack=0;resizeParent=1;resizeParentMax=0;resizeLast=0;collapsible=1;marginBottom=0;whiteSpace=wrap;html=1;" vertex="1" parent="1">
          <mxGeometry x="-60" y="250" width="140" height="60" as="geometry" />
        </mxCell>
      </root>
    </mxGraphModel>
  </diagram>
</mxfile>
